<svg width="24" height="16" viewBox="0 0 24 16" fill="none" xmlns="http://www.w3.org/2000/svg">
<rect width="23.0554" height="16" fill="white"/>
<path d="M15.293 6.74931C15.7681 6.22944 16.2655 5.7381 16.9768 5.55401C18.0366 5.2797 18.984 5.49663 19.7739 6.26174C20.6112 7.0728 21.4296 7.90352 22.2488 8.73297C23.3314 9.82901 23.3257 11.5889 22.2229 12.7247C21.3967 13.5757 20.5534 14.4106 19.7042 15.2387C19.2346 15.6966 18.654 15.9373 17.9984 15.9838C17.1052 16.0471 16.3465 15.7521 15.7162 15.1179C15.3616 14.7611 15.0034 14.4077 14.6361 14.043C14.0988 13.4951 13.5723 12.957 13.0429 12.4107C13.0182 12.368 12.997 12.3333 12.9745 12.2993C12.3148 11.3034 12.3464 9.97527 13.0607 9.03132C13.6236 9.59498 14.1783 10.1558 14.7317 10.7179C14.7529 10.7395 14.7708 10.7719 14.775 10.8014C14.7956 10.946 14.8677 11.0591 14.9703 11.1597C15.1863 11.3715 15.3981 11.5877 15.613 11.8007C15.816 12.002 16.0207 12.2016 16.2282 12.4091C16.6126 12.7985 16.9902 13.1841 17.3756 13.5618C17.6122 13.7938 17.9569 13.779 18.1984 13.5378C18.9968 12.7404 19.7947 11.9425 20.5921 11.1441C20.8408 10.8951 20.8522 10.5515 20.6052 10.3023C19.8049 9.49537 19.0014 8.69148 18.1942 7.89136C17.9375 7.63691 17.6 7.64914 17.3433 7.90258C17.201 8.04301 17.0578 8.18245 16.9114 8.31482C16.8693 8.26012 16.8352 8.20836 16.7916 8.16644C16.4658 7.85302 16.1388 7.54075 15.8106 7.22979C15.6398 7.06788 15.4657 6.90936 15.293 6.74931Z" fill="#DD3333"/>
<path d="M7.14246 15.2943C6.74417 15.6567 6.27414 15.8747 5.7457 15.9541C4.75564 16.103 3.90837 15.8133 3.20192 15.1016C2.42084 14.3148 1.63478 13.533 0.850687 12.7492C-0.283499 11.6154 -0.283648 9.82011 0.850631 8.6857C1.649 7.88724 2.44756 7.08896 3.24584 6.29041C4.38135 5.1545 6.17334 5.15374 7.30956 6.2888C7.66555 6.64443 8.02175 6.99987 8.38811 7.36672C8.83257 7.81401 9.26722 8.24957 9.70066 8.68631C9.79713 8.78351 9.88937 8.88492 9.98568 8.99287C10.4229 9.61554 10.6188 10.294 10.5317 11.0464C10.4728 11.5559 10.2982 12.0203 9.97153 12.4241C9.52299 11.9837 9.07705 11.5504 8.64582 11.1028C8.56485 11.0188 8.54237 10.8783 8.49335 10.7637C8.47645 10.7242 8.46997 10.6761 8.44317 10.6456C8.3327 10.5199 8.21933 10.3963 8.10143 10.2775C7.70376 9.87683 7.30405 9.47815 6.90386 9.07996C6.87327 9.04953 6.8328 9.02904 6.7941 8.99659C6.43689 8.63262 6.08326 8.27523 5.72789 7.91957C5.44237 7.63382 5.11241 7.63623 4.8242 7.92431C4.04344 8.70473 3.26286 9.48533 2.48244 10.2661C2.19602 10.5526 2.19665 10.8831 2.48395 11.1705C3.24716 11.9337 4.01178 12.6956 4.77268 13.4612C4.89052 13.5797 5.01612 13.6774 5.17829 13.7322C5.1897 13.761 5.19655 13.7861 5.21293 13.8C5.32111 13.8919 5.42937 13.9839 5.54125 14.0712C5.94075 14.3828 6.34097 14.6936 6.74254 15.0025C6.87328 15.1031 7.00901 15.1972 7.14246 15.2943Z" fill="#DD3333"/>
<path d="M6.79693 9.00392C6.8328 9.02903 6.87328 9.04953 6.90386 9.07996C7.30405 9.47814 7.70376 9.87683 8.10143 10.2775C8.21933 10.3963 8.3327 10.5199 8.44317 10.6456C8.46997 10.6761 8.47645 10.7242 8.49336 10.7637C8.54238 10.8783 8.56486 11.0188 8.64582 11.1028C9.07706 11.5504 9.52299 11.9837 9.9746 12.432C10.3629 12.8221 10.7351 13.2077 11.1199 13.5802C11.3413 13.7944 11.6901 13.7729 11.9177 13.5475C12.2956 13.1732 12.6699 12.7953 13.0458 12.419C13.5723 12.957 14.0988 13.4951 14.6274 14.0399C14.2152 14.4584 13.8204 14.8924 13.3829 15.2779C12.2289 16.2947 10.5532 16.2269 9.4608 15.1427C9.10432 14.7888 8.74753 14.4353 8.3801 14.0715C8.3331 14.0226 8.29761 13.9832 8.26057 13.9453C7.77244 13.4453 7.28409 12.9457 6.79381 12.4379C6.35723 11.841 6.17154 11.1801 6.23567 10.4528C6.28286 9.9177 6.46602 9.43117 6.79693 9.00392Z" fill="#DD9933"/>
<path d="M9.98354 8.98438C9.88935 8.88491 9.79712 8.7835 9.70065 8.6863C9.2672 8.24955 8.83256 7.814 8.39529 7.37021C8.79547 6.96235 9.18526 6.54757 9.60453 6.16511C10.7102 5.15649 12.4449 5.20708 13.5019 6.26303C13.8777 6.63841 14.255 7.01224 14.642 7.3979C15.1761 7.94483 15.6998 8.48062 16.2264 9.02382C16.2588 9.07517 16.2888 9.11883 16.3178 9.16313C16.9583 10.1422 16.9197 11.4844 16.2246 12.402C16.0207 12.2016 15.816 12.002 15.6129 11.8007C15.3981 11.5877 15.1863 11.3715 14.9702 11.1597C14.8676 11.0591 14.7956 10.946 14.775 10.8014C14.7708 10.7719 14.7529 10.7395 14.7317 10.7179C14.1783 10.1558 13.6236 9.59498 13.0569 9.02497C12.6695 8.64029 12.2958 8.26303 11.9185 7.88938C11.6797 7.65291 11.3286 7.64729 11.0945 7.87753C10.7219 8.24411 10.3536 8.6152 9.98354 8.98438Z" fill="#DD9933"/>
<path d="M9.00883 3.18853C8.51102 1.5667 9.75993 -0.0617364 11.4433 0.00189785C12.6717 0.0483314 13.7121 1.04505 13.798 2.23381C13.8982 3.6198 12.9325 4.68415 11.7517 4.87881C10.548 5.07724 9.43043 4.39008 9.00883 3.18853ZM10.1601 2.85755C10.4057 3.5318 11.1016 3.87532 11.7598 3.6472C12.4114 3.42133 12.7614 2.71767 12.5468 2.06488C12.3317 1.41063 11.6325 1.05018 10.9755 1.25486C10.3113 1.46181 9.94939 2.15992 10.1601 2.85755Z" fill="#DD9933"/>
<path d="M19.9651 3.56408C19.4364 4.5088 18.636 4.96488 17.5658 4.89956C16.914 4.85979 16.3671 4.56594 15.9324 4.07661C15.6959 3.81031 15.7095 3.48247 15.955 3.25513C16.2027 3.02567 16.5872 3.02458 16.8145 3.276C17.267 3.77667 17.9514 3.82499 18.4314 3.52844C18.8724 3.25604 19.109 2.73215 19.013 2.24562C18.9037 1.69166 18.5087 1.30481 17.9548 1.2091C17.4679 1.12496 16.947 1.3814 16.6804 1.83656C16.4995 2.1454 16.1623 2.25406 15.8615 2.10045C15.578 1.95569 15.4489 1.60588 15.5998 1.32597C16.0035 0.577028 16.6302 0.132111 17.4765 0.0243823C18.255 -0.0747099 18.9338 0.163304 19.4933 0.708853C20.2644 1.46081 20.446 2.58872 19.9651 3.56408Z" fill="#DD3333"/>
<path d="M6.06781 3.00021C6.27739 2.73129 6.62674 2.66725 6.89237 2.84277C7.16168 3.02072 7.23846 3.34552 7.07606 3.64062C6.58224 4.53796 5.60987 4.99846 4.66534 4.89663C3.55564 4.77698 2.71283 3.92686 2.52405 2.94248C2.25812 1.55587 3.14774 0.255352 4.54515 0.0345197C5.44483 -0.107654 6.20699 0.192229 6.80501 0.880746C7.09916 1.21942 6.88496 1.73045 6.42464 1.81496C6.1993 1.85633 6.01306 1.7851 5.86459 1.61585C5.5293 1.23359 4.95211 1.09424 4.47435 1.28336C3.97439 1.48127 3.65361 1.96459 3.67297 2.49082C3.69365 3.05331 4.07939 3.54089 4.60999 3.67522C5.16507 3.81575 5.72945 3.57803 6.01938 3.08157C6.03381 3.05685 6.04824 3.03214 6.06781 3.00021Z" fill="#DD3333"/>
<path d="M6.7958 12.4459C7.28409 12.9457 7.77244 13.4453 8.26057 13.9452C8.29761 13.9832 8.3331 14.0226 8.37189 14.0685C8.13336 14.3181 7.89225 14.5606 7.64039 14.7991C7.55425 14.727 7.48294 14.6538 7.40269 14.5922C7.18733 14.4269 6.96618 14.2691 6.751 14.1036C6.51094 13.9189 6.27647 13.7269 6.03611 13.5426C5.97279 13.4941 5.89676 13.4621 5.83124 13.4153C6.15588 13.0874 6.47584 12.7667 6.7958 12.4459Z" fill="#DD3333"/>
<path d="M5.82655 13.4225C5.89675 13.4621 5.97279 13.4941 6.03611 13.5426C6.27646 13.7269 6.51093 13.9189 6.751 14.1036C6.96618 14.2691 7.18733 14.4269 7.40269 14.5922C7.48294 14.6538 7.55425 14.727 7.63306 14.8032C7.47683 14.9702 7.31718 15.1291 7.14999 15.2911C7.00901 15.1972 6.87328 15.1031 6.74254 15.0025C6.34097 14.6936 5.94075 14.3828 5.54125 14.0712C5.42937 13.9839 5.32111 13.8919 5.21293 13.8C5.19655 13.7861 5.18969 13.761 5.18939 13.7316C5.40189 13.7402 5.57321 13.6798 5.71153 13.529C5.74672 13.4906 5.78804 13.4579 5.82655 13.4225Z" fill="#DD3333"/>
<path d="M15.2858 6.75311C15.4657 6.90936 15.6397 7.06789 15.8106 7.22979C16.1388 7.54075 16.4658 7.85303 16.7916 8.16645C16.8352 8.20836 16.8693 8.26012 16.9076 8.32203C16.8014 8.44065 16.6955 8.54455 16.5807 8.64515C16.3588 8.44103 16.1445 8.24152 15.933 8.03908C15.6772 7.79421 15.4258 7.54479 15.1681 7.30192C15.0942 7.23225 15.0053 7.17844 14.9233 7.11736C15.0417 6.99721 15.1602 6.87706 15.2858 6.75311Z" fill="#DD3333"/>
<path d="M14.9157 7.12035C15.0053 7.17843 15.0942 7.23223 15.1681 7.30191C15.4258 7.54478 15.6772 7.7942 15.933 8.03907C16.1445 8.2415 16.3588 8.44102 16.5756 8.65235C16.4607 8.78072 16.3421 8.89857 16.2234 9.01641C15.6998 8.48061 15.1761 7.94481 14.6494 7.40122C14.7335 7.30339 14.8208 7.21337 14.9157 7.12035Z" fill="#DD3333"/>
</svg>
