<svg width="16" height="16" viewBox="0 0 16 16" fill="none" xmlns="http://www.w3.org/2000/svg">
<g clip-path="url(#clip0_23_22)">
<path d="M8.50001 16.1C5.66667 16.1 2.88334 16.1 0.100007 16.1C0.100006 10.7666 0.100006 5.43331 0.100006 0.0999771C5.43334 0.0999764 10.7667 0.0999764 16.1 0.0999756C16.1 5.43331 16.1 10.7666 16.1 16.1C13.5833 16.1 11.0667 16.1 8.50001 16.1ZM7.41865 14.4302C7.62932 14.6083 7.83999 14.7863 8.03812 14.9538C9.8856 13.6094 11.9124 10.9264 12.6452 8.83871C13.3999 6.68857 13.3582 4.61279 11.9345 2.71831C11.1348 1.65415 10.074 0.994087 8.68055 0.780406C8.68055 1.36029 8.66704 1.89031 8.69224 2.41849C8.69713 2.52101 8.83622 2.67698 8.94155 2.70594C10.7518 3.2037 11.9984 5.45034 11.1575 7.67778C10.4893 9.44807 8.48126 10.3645 6.84137 9.64492C5.45297 9.03568 4.62637 7.66525 4.68534 6.07048C4.74333 4.50252 5.6564 3.24814 7.10051 2.724C7.22425 2.67909 7.39139 2.53126 7.39772 2.42301C7.42862 1.89513 7.4117 1.36446 7.4117 0.833259C7.3171 0.8213 7.26794 0.803855 7.22307 0.811534C7.09218 0.833937 6.9608 0.858823 6.83349 0.89602C5.08587 1.40664 3.94699 2.56969 3.33141 4.2485C2.63825 6.13886 3.00384 7.9599 3.8195 9.71828C4.65913 11.5284 5.92943 13.0215 7.41865 14.4302ZM7.87805 8.4999C9.17377 8.50682 10.0929 7.6248 10.1664 6.3039C10.219 5.36033 9.64567 4.42282 8.79262 4.05735C8.06243 3.74452 7.17067 3.92847 6.59285 4.54832C5.96302 5.22397 5.7736 6.03691 6.03983 6.9126C6.30066 7.77053 6.86852 8.34202 7.87805 8.4999Z" fill="#FEFEFE"/>
<path d="M7.39216 14.4068C5.92942 13.0215 4.65912 11.5283 3.81948 9.71827C3.00383 7.95989 2.63824 6.13885 3.3314 4.24849C3.94698 2.56968 5.08586 1.40663 6.83348 0.89601C6.96079 0.858812 7.09217 0.833926 7.22306 0.811523C7.26793 0.803844 7.31709 0.82129 7.41169 0.833249C7.41169 1.36445 7.4286 1.89512 7.39771 2.423C7.39137 2.53125 7.22424 2.67908 7.1005 2.72399C5.65639 3.24813 4.74332 4.50251 4.68533 6.07047C4.62635 7.66524 5.45296 9.03566 6.84136 9.64491C8.48125 10.3645 10.4892 9.44806 11.1575 7.67777C11.9984 5.45033 10.7518 3.20369 8.94154 2.70593C8.83621 2.67697 8.69711 2.521 8.69222 2.41848C8.66703 1.8903 8.68054 1.36028 8.68054 0.780396C10.074 0.994076 11.1348 1.65414 11.9345 2.7183C13.3581 4.61278 13.3999 6.68856 12.6452 8.8387C11.9124 10.9264 9.88558 13.6094 8.0381 14.9538C7.83998 14.7863 7.62931 14.6083 7.39216 14.4068Z" fill="#EF2527"/>
<path d="M7.83538 8.49496C6.86851 8.34209 6.30066 7.77059 6.03982 6.91266C5.77359 6.03698 5.96302 5.22404 6.59285 4.54838C7.17066 3.92853 8.06242 3.74459 8.79261 4.05742C9.64567 4.42289 10.219 5.3604 10.1664 6.30397C10.0929 7.62487 9.17376 8.50688 7.83538 8.49496Z" fill="#EF2426"/>
</g>
<defs>
<clipPath id="clip0_23_22">
<rect width="16" height="16" fill="white"/>
</clipPath>
</defs>
</svg>
