<svg width="16" height="16" viewBox="0 0 16 16" fill="none" xmlns="http://www.w3.org/2000/svg">
<rect width="16" height="16" fill="white"/>
<path d="M10.6131 6.74931C10.9428 6.22944 11.2879 5.7381 11.7815 5.55401C12.517 5.2797 13.1745 5.49663 13.7227 6.26174C14.3037 7.0728 14.8717 7.90352 15.4402 8.73297C16.1915 9.82901 16.1875 11.5889 15.4223 12.7247C14.8489 13.5757 14.2637 14.4106 13.6743 15.2387C13.3484 15.6966 12.9455 15.9373 12.4905 15.9838C11.8707 16.0471 11.3441 15.7521 10.9067 15.1179C10.6606 14.7611 10.4121 14.4077 10.1571 14.043C9.78429 13.4951 9.4189 12.957 9.05149 12.4107C9.03435 12.368 9.01962 12.3333 9.00402 12.2993C8.54624 11.3034 8.56813 9.97527 9.06386 9.03132C9.45449 9.59498 9.83944 10.1558 10.2235 10.7179C10.2382 10.7395 10.2507 10.7719 10.2536 10.8014C10.2679 10.946 10.3179 11.0591 10.3891 11.1597C10.539 11.3715 10.686 11.5877 10.8351 11.8007C10.976 12.002 11.118 12.2016 11.262 12.4091C11.5288 12.7985 11.7909 13.1841 12.0583 13.5618C12.2225 13.7938 12.4617 13.779 12.6293 13.5378C13.1834 12.7404 13.7371 11.9425 14.2905 11.1441C14.4631 10.8951 14.471 10.5515 14.2996 10.3023C13.7442 9.49537 13.1866 8.69148 12.6264 7.89136C12.4483 7.63691 12.214 7.64914 12.0359 7.90258C11.9372 8.04301 11.8377 8.18245 11.7362 8.31482C11.707 8.26012 11.6833 8.20836 11.653 8.16644C11.4269 7.85302 11.2 7.54075 10.9723 7.22979C10.8537 7.06788 10.7329 6.90936 10.6131 6.74931Z" fill="#DD3333"/>
<path d="M4.95673 15.2943C4.68033 15.6567 4.35414 15.8747 3.98741 15.9541C3.30033 16.103 2.71234 15.8133 2.22208 15.1017C1.68003 14.3149 1.13452 13.533 0.590371 12.7492C-0.196732 11.6154 -0.196835 9.82013 0.590331 8.68572C1.14438 7.88725 1.69857 7.08898 2.25256 6.29042C3.04058 5.15451 4.28418 5.15375 5.0727 6.28881C5.31975 6.64445 5.56694 6.99989 5.82119 7.36673C6.12964 7.81403 6.43127 8.24958 6.73207 8.68632C6.79902 8.78353 6.86303 8.88494 6.92987 8.99289C7.23331 9.61556 7.36922 10.294 7.30881 11.0465C7.26791 11.5559 7.14677 12.0203 6.92005 12.4241C6.60877 11.9837 6.2993 11.5504 6.00003 11.1029C5.94385 11.0188 5.92825 10.8784 5.89423 10.7637C5.8825 10.7242 5.878 10.6761 5.8594 10.6456C5.78273 10.5199 5.70406 10.3963 5.62224 10.2775C5.34627 9.87684 5.06888 9.47816 4.79115 9.07997C4.76992 9.04954 4.74184 9.02905 4.71498 8.99661C4.46708 8.63263 4.22167 8.27524 3.97505 7.91958C3.7769 7.63383 3.54792 7.63625 3.34791 7.92433C2.80608 8.70475 2.26437 9.48535 1.72277 10.2661C1.524 10.5527 1.52444 10.8832 1.72382 11.1705C2.25347 11.9338 2.7841 12.6956 3.31216 13.4612C3.39393 13.5798 3.4811 13.6774 3.59364 13.7322C3.60156 13.761 3.60631 13.7861 3.61768 13.8C3.69275 13.8919 3.76788 13.9839 3.84553 14.0712C4.12277 14.3828 4.40051 14.6936 4.6792 15.0026C4.76993 15.1031 4.86412 15.1973 4.95673 15.2943Z" fill="#DD3333"/>
<path d="M4.71693 9.00391C4.74183 9.02902 4.76991 9.04951 4.79114 9.07994C5.06887 9.47813 5.34626 9.87681 5.62223 10.2775C5.70405 10.3963 5.78272 10.5199 5.85939 10.6456C5.87799 10.6761 5.88249 10.7242 5.89422 10.7637C5.92824 10.8783 5.94384 11.0188 6.00002 11.1028C6.29929 11.5504 6.60876 11.9837 6.92217 12.432C7.19163 12.8221 7.44992 13.2077 7.71702 13.5802C7.87063 13.7944 8.11268 13.7729 8.27063 13.5475C8.53288 13.1732 8.79267 12.7953 9.0535 12.4189C9.41889 12.957 9.78428 13.4951 10.1511 14.0399C9.86507 14.4584 9.5911 14.8924 9.28749 15.2778C8.48663 16.2946 7.3237 16.2269 6.5656 15.1426C6.31821 14.7888 6.07061 14.4353 5.81562 14.0715C5.783 14.0226 5.75837 13.9832 5.73267 13.9452C5.39392 13.4453 5.05501 12.9456 4.71477 12.4379C4.41179 11.841 4.28292 11.1801 4.32743 10.4528C4.36017 9.91768 4.48729 9.43115 4.71693 9.00391Z" fill="#DD9933"/>
<path d="M6.92838 8.98437C6.86302 8.8849 6.79901 8.78349 6.73206 8.68628C6.43126 8.24954 6.12962 7.81399 5.82617 7.37019C6.10389 6.96233 6.3744 6.54756 6.66536 6.1651C7.4327 5.15648 8.63648 5.20707 9.37004 6.26302C9.63082 6.6384 9.89267 7.01223 10.1613 7.39789C10.5319 7.94481 10.8953 8.48061 11.2608 9.0238C11.2833 9.07516 11.3041 9.11882 11.3242 9.16312C11.7687 10.1422 11.7419 11.4844 11.2596 12.4019C11.118 12.2016 10.976 12.002 10.8351 11.8007C10.686 11.5877 10.539 11.3715 10.3891 11.1597C10.3178 11.0591 10.2678 10.946 10.2536 10.8013C10.2507 10.7718 10.2382 10.7395 10.2235 10.7179C9.83943 10.1558 9.45448 9.59497 9.06122 9.02496C8.79237 8.64028 8.53304 8.26301 8.27121 7.88937C8.10551 7.6529 7.86181 7.64727 7.69938 7.87751C7.44077 8.2441 7.18522 8.61518 6.92838 8.98437Z" fill="#DD9933"/>
<path d="M6.25195 3.1885C5.90648 1.56667 6.7732 -0.061767 7.94143 0.00186733C8.79388 0.0483009 9.51593 1.04502 9.57556 2.23378C9.6451 3.61977 8.97489 4.68412 8.15541 4.87878C7.3201 5.07721 6.54453 4.39005 6.25195 3.1885ZM7.05089 2.85752C7.22136 3.53177 7.70432 3.87529 8.16105 3.64717C8.61329 3.4213 8.85617 2.71764 8.70722 2.06485C8.55794 1.4106 8.07272 1.05015 7.61681 1.25483C7.15586 1.46178 6.90468 2.15989 7.05089 2.85752Z" fill="#DD9933"/>
<path d="M13.8554 3.5641C13.4885 4.50881 12.933 4.96489 12.1903 4.89958C11.738 4.8598 11.3585 4.56596 11.0568 4.07663C10.8926 3.81033 10.9021 3.48248 11.0724 3.25514C11.2444 3.02569 11.5112 3.0246 11.6689 3.27602C11.983 3.77668 12.4579 3.825 12.791 3.52846C13.0971 3.25606 13.2613 2.73217 13.1946 2.24563C13.1188 1.69168 12.8447 1.30482 12.4603 1.20911C12.1224 1.12497 11.7609 1.38142 11.5758 1.83658C11.4503 2.14542 11.2163 2.25407 11.0076 2.10046C10.8109 1.9557 10.7212 1.60589 10.8259 1.32598C11.1061 0.577043 11.541 0.132126 12.1283 0.0243976C12.6686 -0.0746947 13.1397 0.163319 13.528 0.708869C14.0631 1.46083 14.1891 2.58874 13.8554 3.5641Z" fill="#DD3333"/>
<path d="M4.21094 3.00021C4.35639 2.73129 4.59883 2.66725 4.78317 2.84277C4.97006 3.02072 5.02335 3.34552 4.91065 3.64062C4.56794 4.53796 3.89314 4.99847 3.23766 4.89663C2.46755 4.77698 1.88265 3.92686 1.75164 2.94248C1.5671 1.55587 2.18447 0.255352 3.15425 0.0345197C3.77861 -0.107654 4.30753 0.192229 4.72254 0.880746C4.92668 1.21942 4.77803 1.73045 4.45857 1.81496C4.30219 1.85633 4.17295 1.7851 4.06991 1.61585C3.83723 1.23359 3.43667 1.09424 3.10511 1.28336C2.75815 1.48127 2.53554 1.96459 2.54897 2.49082C2.56332 3.05331 2.83102 3.54089 3.19924 3.67522C3.58446 3.81575 3.97613 3.57803 4.17733 3.08157C4.18735 3.05685 4.19736 3.03214 4.21094 3.00021Z" fill="#DD3333"/>
<path d="M4.71614 12.4459C5.055 12.9457 5.39391 13.4453 5.73266 13.9452C5.75837 13.9832 5.78299 14.0226 5.80991 14.0685C5.64438 14.3181 5.47706 14.5606 5.30227 14.7991C5.24249 14.727 5.193 14.6538 5.13731 14.5922C4.98786 14.4269 4.83438 14.2691 4.68505 14.1036C4.51845 13.9189 4.35573 13.7269 4.18893 13.5426C4.14499 13.4941 4.09222 13.4621 4.04675 13.4153C4.27205 13.0874 4.49409 12.7667 4.71614 12.4459Z" fill="#DD3333"/>
<path d="M4.04351 13.4225C4.09223 13.4621 4.14499 13.4941 4.18894 13.5426C4.35574 13.7269 4.51846 13.9189 4.68506 14.1036C4.83439 14.2691 4.98786 14.4269 5.13732 14.5922C5.19301 14.6538 5.24249 14.727 5.29719 14.8032C5.18877 14.9702 5.07798 15.129 4.96195 15.2911C4.86411 15.1972 4.76992 15.1031 4.67919 15.0025C4.4005 14.6936 4.12276 14.3828 3.84551 14.0712C3.76787 13.9839 3.69274 13.8919 3.61767 13.8C3.6063 13.7861 3.60154 13.7609 3.60133 13.7316C3.7488 13.7402 3.8677 13.6797 3.96368 13.5289C3.98811 13.4906 4.01679 13.4578 4.04351 13.4225Z" fill="#DD3333"/>
<path d="M10.6081 6.75311C10.7329 6.90936 10.8537 7.06789 10.9723 7.22979C11.2 7.54075 11.4269 7.85303 11.653 8.16645C11.6833 8.20836 11.707 8.26012 11.7335 8.32203C11.6599 8.44065 11.5863 8.54455 11.5067 8.64515C11.3527 8.44103 11.204 8.24152 11.0572 8.03908C10.8797 7.79421 10.7052 7.54479 10.5264 7.30192C10.4751 7.23225 10.4134 7.17844 10.3565 7.11736C10.4387 6.99721 10.5209 6.87706 10.6081 6.75311Z" fill="#DD3333"/>
<path d="M10.3512 7.12035C10.4134 7.17843 10.4751 7.23223 10.5264 7.30191C10.7052 7.54478 10.8797 7.7942 11.0572 8.03907C11.204 8.2415 11.3527 8.44102 11.5031 8.65235C11.4234 8.78072 11.3411 8.89857 11.2587 9.01641C10.8953 8.48061 10.5319 7.94481 10.1664 7.40122C10.2248 7.30339 10.2854 7.21337 10.3512 7.12035Z" fill="#DD3333"/>
</svg>
