<svg width="61" height="42" viewBox="0 0 61 42" fill="none" xmlns="http://www.w3.org/2000/svg">
<path d="M39.8171 17.5726C41.0541 16.219 42.349 14.9398 44.2009 14.4605C46.9602 13.7463 49.4269 14.3111 51.4834 16.3031C53.6634 18.4148 55.7943 20.5777 57.9273 22.7373C60.7459 25.5909 60.731 30.173 57.8599 33.1301C55.7086 35.3458 53.5131 37.5196 51.3019 39.6757C50.0794 40.8679 48.5678 41.4945 46.8607 41.6155C44.5352 41.7804 42.5598 41.0122 40.9189 39.3612C39.9955 38.4321 39.063 37.512 38.1066 36.5624C36.7078 35.1361 35.337 33.7351 33.9586 32.3126C33.8942 32.2015 33.839 32.111 33.7805 32.0226C32.063 29.4296 32.1451 25.9717 34.005 23.5141C35.4705 24.9816 36.9147 26.4418 38.3556 27.9053C38.4109 27.9615 38.4575 28.0457 38.4684 28.1225C38.522 28.4992 38.7096 28.7937 38.9767 29.0556C39.5393 29.607 40.0907 30.1698 40.6501 30.7245C41.1786 31.2486 41.7116 31.7683 42.2518 32.3085C43.2527 33.3224 44.2359 34.3263 45.2392 35.3096C45.8554 35.9136 46.7527 35.8752 47.3816 35.2471C49.4602 33.1709 51.5376 31.0936 53.6137 29.015C54.2614 28.3666 54.2911 27.4719 53.6478 26.8233C51.5641 24.7222 49.4722 22.6292 47.3707 20.546C46.7024 19.8835 45.8235 19.9154 45.1551 20.5752C44.7847 20.9409 44.4117 21.3039 44.0306 21.6486C43.9211 21.5061 43.8323 21.3714 43.7188 21.2622C42.8704 20.4462 42.0192 19.6332 41.1647 18.8236C40.7198 18.402 40.2666 17.9893 39.8171 17.5726Z" fill="#DD3333"/>
<path d="M18.5962 39.8205C17.5592 40.764 16.3354 41.3314 14.9596 41.5383C12.3818 41.9259 10.1759 41.1717 8.33655 39.3188C6.30294 37.2703 4.25634 35.2346 2.21486 33.1939C-0.738116 30.2419 -0.738502 25.5678 2.21472 22.6142C4.29336 20.5353 6.37251 18.4569 8.45092 16.3778C11.4073 13.4203 16.073 13.4183 19.0312 16.3736C19.9581 17.2995 20.8855 18.225 21.8394 19.1801C22.9966 20.3447 24.1282 21.4787 25.2567 22.6158C25.5079 22.8689 25.7481 23.1329 25.9988 23.414C27.1372 25.0352 27.6471 26.8015 27.4205 28.7607C27.2671 30.0871 26.8126 31.2961 25.962 32.3475C24.7942 31.201 23.6331 30.0727 22.5103 28.9075C22.2996 28.6887 22.241 28.323 22.1134 28.0245C22.0694 27.9216 22.0525 27.7965 21.9827 27.7171C21.6951 27.3897 21.3999 27.068 21.093 26.7587C20.0576 25.7154 19.0169 24.6774 17.975 23.6407C17.8953 23.5615 17.79 23.5081 17.6892 23.4236C16.7592 22.476 15.8384 21.5455 14.9132 20.6195C14.1698 19.8755 13.3107 19.8818 12.5604 20.6318C10.5276 22.6637 8.49522 24.6961 6.4633 26.7289C5.71758 27.475 5.71923 28.3355 6.46723 29.0836C8.45435 31.0708 10.4451 33.0545 12.4262 35.0477C12.733 35.3564 13.06 35.6107 13.4823 35.7532C13.512 35.8282 13.5298 35.8936 13.5725 35.9299C13.8541 36.1691 14.136 36.4086 14.4273 36.6359C15.4674 37.4473 16.5094 38.2564 17.555 39.0608C17.8954 39.3227 18.2487 39.5677 18.5962 39.8205Z" fill="#DD3333"/>
<path d="M17.6966 23.4427C17.79 23.5081 17.8953 23.5615 17.975 23.6407C19.0169 24.6774 20.0576 25.7154 21.093 26.7587C21.3999 27.068 21.6951 27.3897 21.9827 27.7171C22.0525 27.7965 22.0694 27.9216 22.1134 28.0245C22.241 28.323 22.2996 28.6887 22.5103 28.9075C23.6331 30.0727 24.7942 31.201 25.97 32.3681C26.9809 33.3837 27.95 34.3877 28.952 35.3576C29.5283 35.9153 30.4364 35.8594 31.029 35.2725C32.0129 34.2979 32.9876 33.3141 33.9661 32.3342C35.337 33.7351 36.7078 35.1361 38.084 36.5544C37.0109 37.6441 35.983 38.774 34.844 39.7776C31.8394 42.4249 27.4764 42.2487 24.6322 39.4256C23.7041 38.5044 22.7752 37.5839 21.8185 36.6367C21.6961 36.5095 21.6037 36.4068 21.5073 36.308C20.2364 35.0065 18.9649 33.7055 17.6884 32.3835C16.5517 30.8293 16.0683 29.1087 16.2353 27.2151C16.3581 25.8218 16.835 24.5551 17.6966 23.4427Z" fill="#DD9933"/>
<path d="M25.9933 23.3918C25.7481 23.1329 25.5079 22.8688 25.2567 22.6157C24.1282 21.4786 22.9966 20.3446 21.8581 19.1892C22.9 18.1272 23.9149 17.0473 25.0065 16.0516C27.8853 13.4255 32.4016 13.5572 35.1537 16.3065C36.132 17.2839 37.1144 18.2572 38.1222 19.2613C39.5128 20.6852 40.8761 22.0802 42.2471 23.4945C42.3316 23.6282 42.4096 23.7419 42.4851 23.8572C44.1529 26.4063 44.0523 29.901 42.2426 32.2899C41.7116 31.7683 41.1786 31.2486 40.6501 30.7245C40.0907 30.1698 39.5393 29.607 38.9767 29.0556C38.7096 28.7937 38.522 28.4992 38.4684 28.1225C38.4575 28.0457 38.4108 27.9615 38.3556 27.9053C36.9147 26.4418 35.4705 24.9816 33.9951 23.4975C32.9864 22.496 32.0135 21.5137 31.0312 20.5409C30.4095 19.9252 29.4952 19.9106 28.8858 20.51C27.9156 21.4645 26.9569 22.4306 25.9933 23.3918Z" fill="#DD9933"/>
<path d="M23.4555 8.30173C22.1594 4.07912 25.4111 -0.160701 29.794 0.00497754C32.9921 0.125872 35.701 2.72095 35.9248 5.81601C36.1856 9.4246 33.6712 12.1957 30.5968 12.7026C27.4629 13.2192 24.5532 11.4301 23.4555 8.30173ZM26.4529 7.43998C27.0925 9.19546 28.9044 10.0899 30.6179 9.49594C32.3146 8.90784 33.2258 7.0758 32.667 5.37619C32.1069 3.67277 30.2865 2.7343 28.5761 3.26721C26.8467 3.80602 25.9044 5.62364 26.4529 7.43998Z" fill="#DD9933"/>
<path d="M51.9813 9.2795C50.6048 11.7392 48.521 12.9266 45.7345 12.7566C44.0374 12.653 42.6136 11.888 41.4818 10.6139C40.8659 9.9206 40.9015 9.06701 41.5406 8.47511C42.1856 7.87769 43.1867 7.87486 43.7783 8.52946C44.9566 9.833 46.7384 9.9588 47.9882 9.18672C49.1363 8.47749 49.7524 7.11348 49.5024 5.84673C49.2178 4.40445 48.1896 3.39724 46.7474 3.14805C45.4795 2.92897 44.1234 3.59666 43.4292 4.78172C42.9582 5.58582 42.0803 5.86871 41.2972 5.46877C40.5592 5.09187 40.2229 4.1811 40.6157 3.45232C41.6668 1.50238 43.2985 0.343987 45.502 0.0635038C47.5289 -0.194494 49.2963 0.425201 50.7529 1.8456C52.7606 3.80342 53.2334 6.74005 51.9813 9.2795Z" fill="#DD3333"/>
<path d="M15.7982 7.81138C16.3439 7.11122 17.2535 6.94448 17.9451 7.40147C18.6462 7.86478 18.8461 8.71044 18.4233 9.47875C17.1376 11.8151 14.6059 13.0141 12.1467 12.7489C9.25751 12.4374 7.06315 10.224 6.57164 7.66108C5.87927 4.05089 8.19547 0.664838 11.8338 0.0898758C14.1762 -0.280289 16.1606 0.500489 17.7176 2.29312C18.4835 3.17489 17.9257 4.50543 16.7273 4.72545C16.1406 4.83315 15.6557 4.64772 15.2691 4.20703C14.3962 3.21179 12.8934 2.84899 11.6495 3.34138C10.3478 3.85665 9.51258 5.11502 9.56297 6.48512C9.61682 7.94963 10.6211 9.21909 12.0026 9.56884C13.4478 9.93473 14.9173 9.3158 15.6721 8.02321C15.7097 7.95886 15.7473 7.89451 15.7982 7.81138Z" fill="#DD3333"/>
<path d="M17.6936 32.4043C18.9649 33.7055 20.2364 35.0065 21.5073 36.308C21.6037 36.4068 21.6961 36.5095 21.7971 36.6288C21.1761 37.2787 20.5483 37.9102 19.8926 38.531C19.6683 38.3434 19.4827 38.1527 19.2737 37.9924C18.713 37.562 18.1372 37.1513 17.577 36.7203C16.9519 36.2394 16.3415 35.7396 15.7157 35.2598C15.5508 35.1334 15.3528 35.0501 15.1823 34.9284C16.0275 34.0745 16.8606 33.2394 17.6936 32.4043Z" fill="#DD3333"/>
<path d="M15.1701 34.9471C15.3529 35.0502 15.5508 35.1334 15.7157 35.2598C16.3415 35.7396 16.9519 36.2394 17.577 36.7203C18.1372 37.1513 18.713 37.562 19.2737 37.9924C19.4827 38.1527 19.6683 38.3435 19.8735 38.5418C19.4668 38.9767 19.0511 39.3902 18.6158 39.8121C18.2487 39.5677 17.8954 39.3227 17.555 39.0608C16.5094 38.2564 15.4674 37.4473 14.4273 36.6359C14.136 36.4086 13.8541 36.1691 13.5725 35.9299C13.5298 35.8936 13.512 35.8282 13.5112 35.7519C14.0644 35.7742 14.5105 35.6168 14.8706 35.2242C14.9622 35.1243 15.0698 35.0391 15.1701 34.9471Z" fill="#DD3333"/>
<path d="M39.7983 17.5825C40.2666 17.9893 40.7198 18.402 41.1647 18.8236C42.0192 19.6332 42.8704 20.4462 43.7188 21.2623C43.8323 21.3714 43.9211 21.5061 44.0208 21.6673C43.7444 21.9762 43.4685 22.2467 43.1696 22.5086C42.5919 21.9772 42.034 21.4577 41.4834 20.9306C40.8174 20.2931 40.1627 19.6437 39.4919 19.0114C39.2994 18.83 39.068 18.6899 38.8545 18.5308C39.1628 18.218 39.4712 17.9052 39.7983 17.5825Z" fill="#DD3333"/>
<path d="M38.8347 18.5386C39.068 18.6899 39.2994 18.8299 39.4919 19.0114C40.1627 19.6437 40.8174 20.2931 41.4834 20.9306C42.034 21.4577 42.5919 21.9771 43.1564 22.5274C42.8573 22.8616 42.5484 23.1684 42.2395 23.4752C40.8762 22.0802 39.5128 20.6852 38.1412 19.2699C38.3604 19.0152 38.5877 18.7808 38.8347 18.5386Z" fill="#DD3333"/>
</svg>
